Normalized EMG Linear Envelopes
nRows=253
nColumns=4

endheader
time	 med_gas_r	  soleus_r	 tib_ant_r	
2.20819	  0.021071	  0.023922	  0.012722	
2.24381	  0.021659	  0.023499	  0.012811	
2.27942	  0.022236	  0.023115	  0.012882	
2.31504	  0.022787	  0.022808	  0.012934	
2.35066	  0.023270	  0.022641	  0.012980	
2.38627	  0.023623	  0.022672	  0.013040	
2.42189	  0.023798	  0.022917	  0.013126	
2.4575	  0.023785	  0.023330	  0.013248	
2.49312	  0.023619	  0.023826	  0.013406	
2.52874	  0.023351	  0.024305	  0.013589	
2.56435	  0.023012	  0.024684	  0.013770	
2.59997	  0.022592	  0.024906	  0.013903	
2.63558	  0.022067	  0.024952	  0.013954	
2.6712	  0.021448	  0.024833	  0.013916	
2.70682	  0.020804	  0.024576	  0.013816	
2.74243	  0.020238	  0.024210	  0.013698	
2.77805	  0.019830	  0.023769	  0.013593	
2.81366	  0.019606	  0.023307	  0.013494	
2.84928	  0.019537	  0.022894	  0.013377	
2.8849	  0.019577	  0.022595	  0.013227	
2.92051	  0.019680	  0.022431	  0.013072	
2.95613	  0.019813	  0.022377	  0.012957	
2.99174	  0.019954	  0.022393	  0.012908	
3.02736	  0.020091	  0.022454	  0.012902	
3.06298	  0.020229	  0.022558	  0.012893	
3.09859	  0.020375	  0.022701	  0.012844	
3.13421	  0.020535	  0.022860	  0.012753	
3.16982	  0.020702	  0.023006	  0.012641	
3.20544	  0.020846	  0.023124	  0.012540	
3.24106	  0.020931	  0.023233	  0.012473	
3.27667	  0.020921	  0.023362	  0.012448	
3.31229	  0.020797	  0.023521	  0.012458	
3.3479	  0.020569	  0.023675	  0.012478	
3.38352	  0.020284	  0.023768	  0.012481	
3.41914	  0.020022	  0.023785	  0.012449	
3.45475	  0.019877	  0.023765	  0.012387	
3.49037	  0.019904	  0.023769	  0.012319	
3.52598	  0.020087	  0.023811	  0.012277	
3.5616	  0.020336	  0.023850	  0.012290	
3.59722	  0.020549	  0.023829	  0.012378	
3.63283	  0.020674	  0.023740	  0.012538	
3.66845	  0.020729	  0.023634	  0.012741	
3.70406	  0.020770	  0.023598	  0.012945	
3.73968	  0.020832	  0.023692	  0.013128	
3.7753	  0.020907	  0.023921	  0.013296	
3.81091	  0.020956	  0.024228	  0.013477	
3.84653	  0.020943	  0.024526	  0.013682	
3.88214	  0.020850	  0.024734	  0.013886	
3.91776	  0.020678	  0.024810	  0.014032	
3.95338	  0.020453	  0.024757	  0.014036	
3.98899	  0.020234	  0.024616	  0.013791	
4.02461	  0.020112	  0.024447	  0.013147	
4.06022	  0.020164	  0.024311	  0.011914	
4.09584	  0.020392	  0.024246	  0.009897	
4.13146	  0.020683	  0.024242	  0.006958	
4.16707	  0.020842	  0.024233	  0.003084	
4.20269	  0.020668	  0.024129	 -0.001485	
4.2383	  0.020029	  0.023884	 -0.006049	
4.27392	  0.018904	  0.023576	 -0.009169	
4.30954	  0.017454	  0.023435	 -0.008515	
4.34515	  0.016162	  0.023822	 -0.000933	
4.38077	  0.015980	  0.025205	  0.017322	
4.41638	  0.018321	  0.028135	  0.050398	
4.452	  0.024800	  0.033173	  0.102333	
4.48762	  0.036900	  0.040673	  0.175357	
4.52323	  0.055815	  0.050473	  0.266801	
4.55885	  0.082332	  0.061698	  0.366555	
4.59446	  0.116079	  0.072850	  0.458320	
4.63008	  0.153873	  0.082184	  0.525739	
4.6657	  0.188514	  0.088156	  0.559992	
4.70131	  0.210356	  0.089827	  0.563256	
4.73693	  0.212049	  0.087170	  0.545632	
4.77254	  0.193247	  0.081154	  0.518526	
4.80816	  0.161086	  0.073426	  0.489706	
4.84378	  0.125938	  0.065662	  0.462665	
4.87939	  0.096202	  0.059001	  0.438674	
4.91501	  0.075911	  0.053909	  0.418393	
4.95062	  0.065364	  0.050416	  0.401855	
4.98624	  0.062656	  0.048396	  0.388172	
5.02186	  0.064737	  0.047637	  0.376293	
5.05747	  0.068359	  0.047822	  0.366242	
5.09309	  0.071264	  0.048570	  0.359241	
5.1287	  0.072968	  0.049584	  0.356417	
5.16432	  0.074312	  0.050730	  0.357519	
5.19994	  0.076080	  0.051956	  0.361104	
5.23555	  0.077948	  0.053148	  0.365978	
5.27117	  0.078658	  0.054100	  0.372261	
5.30678	  0.077150	  0.054632	  0.380821	
5.3424	  0.073504	  0.054701	  0.391579	
5.37802	  0.068849	  0.054373	  0.402542	
5.41363	  0.064441	  0.053719	  0.410791	
5.44925	  0.060849	  0.052781	  0.414722	
5.48486	  0.057954	  0.051650	  0.415508	
5.52048	  0.055493	  0.050516	  0.416397	
5.5561	  0.053460	  0.049618	  0.420427	
5.59171	  0.052030	  0.049146	  0.428466	
5.62733	  0.051277	  0.049215	  0.438998	
5.66294	  0.051061	  0.049863	  0.449499	
5.69856	  0.051131	  0.051017	  0.458065	
5.73418	  0.051243	  0.052434	  0.464017	
5.76979	  0.051230	  0.053727	  0.467418	
5.80541	  0.051070	  0.054533	  0.468492	
5.84102	  0.050964	  0.054699	  0.467663	
5.87664	  0.051296	  0.054349	  0.465789	
5.91226	  0.052427	  0.053782	  0.463886	
5.94787	  0.054412	  0.053303	  0.462546	
5.98349	  0.056879	  0.053104	  0.461960	
6.0191	  0.059215	  0.053228	  0.462686	
6.05472	  0.060936	  0.053623	  0.466211	
6.09034	  0.061899	  0.054233	  0.474427	
6.12595	  0.062197	  0.055085	  0.488306	
6.16157	  0.061950	  0.056299	  0.506992	
6.19718	  0.061272	  0.057991	  0.528099	
6.2328	  0.060383	  0.060116	  0.548793	
6.26842	  0.059626	  0.062371	  0.566653	
6.30403	  0.059312	  0.064249	  0.580001	
6.33965	  0.059544	  0.065225	  0.588126	
6.37526	  0.060180	  0.064998	  0.591568	
6.41088	  0.060938	  0.063644	  0.591929	
6.4465	  0.061596	  0.061601	  0.590951	
6.48211	  0.062171	  0.059474	  0.589548	
6.51773	  0.062883	  0.057781	  0.587665	
6.55334	  0.063884	  0.056822	  0.584974	
6.58896	  0.064959	  0.056661	  0.581521	
6.62458	  0.065552	  0.057142	  0.577708	
6.66019	  0.065126	  0.057891	  0.573891	
6.69581	  0.063528	  0.058431	  0.570327	
6.73142	  0.061044	  0.058466	  0.567570	
6.76704	  0.058202	  0.058134	  0.566519	
6.80266	  0.055574	  0.057974	  0.567645	
6.83827	  0.053661	  0.058548	  0.570251	
6.87389	  0.052766	  0.060036	  0.572945	
6.9095	  0.052856	  0.062148	  0.575007	
6.94512	  0.053585	  0.064366	  0.576892	
6.98074	  0.054518	  0.066272	  0.579034	
7.01635	  0.055374	  0.067665	  0.580407	
7.05197	  0.056086	  0.068451	  0.578848	
7.08758	  0.056739	  0.068524	  0.572972	
7.1232	  0.057514	  0.067797	  0.563664	
7.15882	  0.058612	  0.066393	  0.553816	
7.19443	  0.060079	  0.064728	  0.546896	
7.23005	  0.061674	  0.063362	  0.545544	
7.26566	  0.063011	  0.062691	  0.550803	
7.30128	  0.063857	  0.062748	  0.562081	
7.3369	  0.064225	  0.063260	  0.577762	
7.37251	  0.064206	  0.063894	  0.596131	
7.40813	  0.063870	  0.064456	  0.615857	
7.44374	  0.063429	  0.064917	  0.635557	
7.47936	  0.063340	  0.065302	  0.652845	
7.51498	  0.064045	  0.065609	  0.664003	
7.55059	  0.065576	  0.065835	  0.665243	
7.58621	  0.067557	  0.066047	  0.655133	
7.62182	  0.069642	  0.066354	  0.636244	
7.65744	  0.071816	  0.066780	  0.614273	
7.69306	  0.074170	  0.067155	  0.595109	
7.72867	  0.076430	  0.067174	  0.582163	
7.76429	  0.077887	  0.066622	  0.575660	
7.7999	  0.077931	  0.065557	  0.573658	
7.83552	  0.076629	  0.064284	  0.573628	
7.87114	  0.074697	  0.063142	  0.573844	
7.90675	  0.072892	  0.062282	  0.574293	
7.94237	  0.071441	  0.061619	  0.576615	
7.97798	  0.070043	  0.060972	  0.582771	
8.0136	  0.068317	  0.060257	  0.593073	
8.04922	  0.066166	  0.059583	  0.605119	
8.08483	  0.063820	  0.059196	  0.614734	
8.12045	  0.061658	  0.059338	  0.618398	
8.15606	  0.060056	  0.060117	  0.615422	
8.19168	  0.059291	  0.061473	  0.608493	
8.2273	  0.059466	  0.063264	  0.602585	
8.26291	  0.060483	  0.065391	  0.603025	
8.29853	  0.062126	  0.067830	  0.613401	
8.33414	  0.064214	  0.070551	  0.633934	
8.36976	  0.066684	  0.073408	  0.661172	
8.40538	  0.069552	  0.076155	  0.689542	
8.44099	  0.072767	  0.078529	  0.713909	
8.47661	  0.076088	  0.080334	  0.731292	
8.51222	  0.079026	  0.081453	  0.740661	
8.54784	  0.080941	  0.081843	  0.741652	
8.58346	  0.081338	  0.081556	  0.734052	
8.61907	  0.080182	  0.080738	  0.718723	
8.65469	  0.077925	  0.079558	  0.698797	
8.6903	  0.075184	  0.078104	  0.679469	
8.72592	  0.072397	  0.076394	  0.666211	
8.76154	  0.069787	  0.074529	  0.662630	
8.79715	  0.067574	  0.072833	  0.669275	
8.83277	  0.066055	  0.071784	  0.684026	
8.86838	  0.065406	  0.071779	  0.703828	
8.904	  0.065484	  0.072934	  0.726487	
8.93962	  0.065948	  0.075062	  0.750837	
8.97523	  0.066574	  0.077750	  0.774913	
9.01085	  0.067340	  0.080471	  0.794162	
9.04646	  0.068178	  0.082700	  0.802246	
9.08208	  0.068743	  0.084077	  0.794618	
9.1177	  0.068595	  0.084556	  0.772012	
9.15331	  0.067611	  0.084440	  0.740876	
9.18893	  0.066148	  0.084247	  0.710552	
9.22454	  0.064800	  0.084448	  0.689547	
9.26016	  0.064076	  0.085266	  0.683144	
9.29578	  0.064339	  0.086682	  0.692647	
9.33139	  0.065880	  0.088635	  0.715408	
9.36701	  0.068822	  0.091193	  0.745282	
9.40262	  0.072897	  0.094473	  0.774046	
9.43824	  0.077397	  0.098350	  0.793974	
9.47386	  0.081441	  0.102264	  0.800722	
9.50947	  0.084325	  0.105387	  0.794981	
9.54509	  0.085705	  0.107084	  0.781777	
9.5807	  0.085611	  0.107278	  0.767498	
9.61632	  0.084401	  0.106430	  0.756296	
9.65194	  0.082640	  0.105171	  0.748410	
9.68755	  0.080838	  0.103918	  0.741684	
9.72317	  0.079166	  0.102708	  0.734665	
9.75878	  0.077420	  0.101306	  0.728245	
9.7944	  0.075289	  0.099442	  0.724519	
9.83002	  0.072674	  0.097011	  0.724436	
9.86563	  0.069775	  0.094104	  0.726723	
9.90125	  0.066929	  0.090891	  0.729001	
9.93686	  0.064387	  0.087529	  0.729662	
9.97248	  0.062204	  0.084194	  0.728236	
10.0081	  0.060295	  0.081131	  0.723671	
10.0437	  0.058655	  0.078565	  0.712585	
10.0793	  0.057592	  0.076523	  0.690099	
10.1149	  0.057771	  0.074756	  0.653158	
10.1506	  0.059976	  0.072914	  0.603227	
10.1862	  0.064700	  0.070805	  0.545728	
10.2218	  0.071748	  0.068482	  0.487137	
10.2574	  0.079994	  0.066095	  0.432685	
10.293	  0.087532	  0.063732	  0.385816	
10.3286	  0.092434	  0.061379	  0.347907	
10.3643	  0.093814	  0.058941	  0.317355	
10.3999	  0.092373	  0.056257	  0.289520	
10.4355	  0.089867	  0.053150	  0.259112	
10.4711	  0.087948	  0.049613	  0.223673	
10.5067	  0.087464	  0.045983	  0.184984	
10.5423	  0.088680	  0.042905	  0.147312	
10.578	  0.091923	  0.041019	  0.114468	
10.6136	  0.097870	  0.040616	  0.088196	
10.6492	  0.107280	  0.041511	  0.068350	
10.6848	  0.120468	  0.043206	  0.053786	
10.7204	  0.136887	  0.045174	  0.043084	
10.756	  0.154901	  0.047049	  0.034990	
10.7916	  0.171936	  0.048637	  0.028672	
10.8273	  0.185144	  0.049820	  0.023748	
10.8629	  0.192436	  0.050493	  0.020095	
10.8985	  0.193243	  0.050580	  0.017609	
10.9341	  0.188435	  0.050053	  0.016100	
10.9697	  0.179494	  0.048962	  0.015321	
11.0053	  0.167611	  0.047475	  0.015028	
11.041	  0.153281	  0.045906	  0.015014	
11.0766	  0.136517	  0.044656	  0.015106	
11.1122	  0.117413	  0.044042	  0.015165	
11.1478	  0.096633	  0.044144	  0.015118	
11.1834	  0.075518	  0.044780	  0.014965	
